<svg width="17" height="17" viewBox="0 0 17 17" fill="none" xmlns="http://www.w3.org/2000/svg">
<g clip-path="url(#clip0_0_212)">
<path d="M4.60417 8.14581C4.18558 8.14581 3.77109 8.06337 3.38436 7.90318C2.99764 7.74299 2.64625 7.5082 2.35027 7.21222C2.05428 6.91623 1.81949 6.56484 1.6593 6.17812C1.49912 5.79139 1.41667 5.3769 1.41667 4.95831C1.41667 4.53972 1.49912 4.12523 1.6593 3.73851C1.81949 3.35178 2.05428 3.0004 2.35027 2.70441C2.64625 2.40842 2.99764 2.17363 3.38436 2.01345C3.77109 1.85326 4.18558 1.77081 4.60417 1.77081C5.44955 1.77081 6.2603 2.10664 6.85807 2.70441C7.45584 3.30218 7.79167 4.11294 7.79167 4.95831C7.79167 5.80369 7.45584 6.61444 6.85807 7.21222C6.2603 7.80999 5.44955 8.14581 4.60417 8.14581ZM4.95833 15.2291C4.11296 15.2291 3.3022 14.8933 2.70443 14.2955C2.10666 13.6978 1.77083 12.887 1.77083 12.0416C1.77083 11.1963 2.10666 10.3855 2.70443 9.78774C3.3022 9.18997 4.11296 8.85415 4.95833 8.85415C5.80371 8.85415 6.61446 9.18997 7.21224 9.78774C7.81001 10.3855 8.14583 11.1963 8.14583 12.0416C8.14583 12.887 7.81001 13.6978 7.21224 14.2955C6.61446 14.8933 5.80371 15.2291 4.95833 15.2291ZM12.0417 8.14581C11.6231 8.14581 11.2086 8.06337 10.8219 7.90318C10.4351 7.74299 10.0838 7.5082 9.78777 7.21222C9.49178 6.91623 9.25699 6.56484 9.0968 6.17812C8.93661 5.79139 8.85417 5.3769 8.85417 4.95831C8.85417 4.53972 8.93661 4.12523 9.0968 3.73851C9.25699 3.35178 9.49178 3.0004 9.78777 2.70441C10.0838 2.40842 10.4351 2.17363 10.8219 2.01345C11.2086 1.85326 11.6231 1.77081 12.0417 1.77081C12.887 1.77081 13.6978 2.10664 14.2956 2.70441C14.8933 3.30218 15.2292 4.11294 15.2292 4.95831C15.2292 5.80369 14.8933 6.61444 14.2956 7.21222C13.6978 7.80999 12.887 8.14581 12.0417 8.14581ZM12.0417 15.2291C11.1963 15.2291 10.3855 14.8933 9.78777 14.2955C9.18999 13.6978 8.85417 12.887 8.85417 12.0416C8.85417 11.1963 9.18999 10.3855 9.78777 9.78774C10.3855 9.18997 11.1963 8.85415 12.0417 8.85415C12.887 8.85415 13.6978 9.18997 14.2956 9.78774C14.8933 10.3855 15.2292 11.1963 15.2292 12.0416C15.2292 12.887 14.8933 13.6978 14.2956 14.2955C13.6978 14.8933 12.887 15.2291 12.0417 15.2291ZM4.60417 6.72915C5.07382 6.72915 5.52424 6.54258 5.85634 6.21048C6.18843 5.87839 6.375 5.42797 6.375 4.95831C6.375 4.48866 6.18843 4.03824 5.85634 3.70614C5.52424 3.37405 5.07382 3.18748 4.60417 3.18748C4.13451 3.18748 3.6841 3.37405 3.352 3.70614C3.0199 4.03824 2.83333 4.48866 2.83333 4.95831C2.83333 5.42797 3.0199 5.87839 3.352 6.21048C3.6841 6.54258 4.13451 6.72915 4.60417 6.72915ZM4.95833 13.8125C5.42799 13.8125 5.87841 13.6259 6.2105 13.2938C6.5426 12.9617 6.72917 12.5113 6.72917 12.0416C6.72917 11.572 6.5426 11.1216 6.2105 10.7895C5.87841 10.4574 5.42799 10.2708 4.95833 10.2708C4.48868 10.2708 4.03826 10.4574 3.70617 10.7895C3.37407 11.1216 3.1875 11.572 3.1875 12.0416C3.1875 12.5113 3.37407 12.9617 3.70617 13.2938C4.03826 13.6259 4.48868 13.8125 4.95833 13.8125ZM12.0417 6.72915C12.5113 6.72915 12.9617 6.54258 13.2938 6.21048C13.6259 5.87839 13.8125 5.42797 13.8125 4.95831C13.8125 4.48866 13.6259 4.03824 13.2938 3.70614C12.9617 3.37405 12.5113 3.18748 12.0417 3.18748C11.572 3.18748 11.1216 3.37405 10.7895 3.70614C10.4574 4.03824 10.2708 4.48866 10.2708 4.95831C10.2708 5.42797 10.4574 5.87839 10.7895 6.21048C11.1216 6.54258 11.572 6.72915 12.0417 6.72915ZM12.0417 13.8125C12.5113 13.8125 12.9617 13.6259 13.2938 13.2938C13.6259 12.9617 13.8125 12.5113 13.8125 12.0416C13.8125 11.572 13.6259 11.1216 13.2938 10.7895C12.9617 10.4574 12.5113 10.2708 12.0417 10.2708C11.572 10.2708 11.1216 10.4574 10.7895 10.7895C10.4574 11.1216 10.2708 11.572 10.2708 12.0416C10.2708 12.5113 10.4574 12.9617 10.7895 13.2938C11.1216 13.6259 11.572 13.8125 12.0417 13.8125Z" fill="#F3F3F3"/>
</g>
<defs>
<clipPath id="clip0_0_212">
<rect width="17" height="17" fill="white"/>
</clipPath>
</defs>
</svg>
